<svg width="400" height="400" viewBox="0 0 400 400" fill="none" xmlns="http://www.w3.org/2000/svg">
<rect x="17.5" y="17.5" width="365" height="365" rx="182.5" fill="#9AD4D6" stroke="#101935" stroke-width="35"/>
<path d="M164.157 108.6C167.557 106.6 172.657 104.7 179.457 102.9C186.457 101.1 193.457 100.2 200.457 100.2C210.457 100.2 219.257 101.7 226.857 104.7C234.657 107.5 239.657 112 241.857 118.2C245.457 128.6 249.357 140.7 253.557 154.5C257.757 168.3 261.957 182.6 266.157 197.4C270.357 212 274.457 226.5 278.457 240.9C282.457 255.1 285.957 267.7 288.957 278.7C286.557 281.5 282.957 283.7 278.157 285.3C273.357 287.1 267.657 288 261.057 288C256.257 288 252.157 287.6 248.757 286.8C245.557 286 242.857 284.8 240.657 283.2C238.657 281.6 236.957 279.5 235.557 276.9C234.357 274.3 233.257 271.3 232.257 267.9L226.857 247.2H172.557C170.957 253.2 169.357 259.4 167.757 265.8C166.157 272.2 164.557 278.4 162.957 284.4C160.157 285.4 157.157 286.2 153.957 286.8C150.957 287.6 147.257 288 142.857 288C132.657 288 125.057 286.3 120.057 282.9C115.257 279.3 112.857 274.4 112.857 268.2C112.857 265.4 113.257 262.6 114.057 259.8C114.857 257 115.757 253.7 116.757 249.9C118.157 244.5 120.057 237.8 122.457 229.8C125.057 221.8 127.857 213.2 130.857 204C133.857 194.6 137.057 185 140.457 175.2C143.857 165.4 147.057 156.2 150.057 147.6C153.057 138.8 155.757 131 158.157 124.2C160.757 117.4 162.757 112.2 164.157 108.6ZM200.157 147.3C197.357 155.7 194.157 165.1 190.557 175.5C187.157 185.7 184.057 196.1 181.257 206.7H218.457C215.657 195.9 212.757 185.4 209.757 175.2C206.957 164.8 204.357 155.5 201.957 147.3H200.157Z" fill="#101935"/>
</svg>
