<svg width="1200" height="628" viewBox="0 0 1200 628" fill="none" xmlns="http://www.w3.org/2000/svg">
<rect width="1200" height="628" fill="#101935"/>
<path d="M118.53 300L110.63 265.1H118.13L121.43 281.85L123.28 291.55H123.43L125.63 281.85L129.48 265.1H137.78L141.68 281.85L143.83 291.55H143.98L145.83 281.85L149.18 265.1H156.38L148.28 300H139.63L135.23 281.1L133.53 273.45H133.38L131.63 281.1L127.23 300H118.53ZM170.943 300.6C168.943 300.6 167.16 300.283 165.593 299.65C164.026 298.983 162.693 298.067 161.593 296.9C160.526 295.7 159.71 294.25 159.143 292.55C158.61 290.85 158.343 288.95 158.343 286.85C158.343 284.783 158.61 282.917 159.143 281.25C159.676 279.55 160.46 278.1 161.493 276.9C162.56 275.7 163.86 274.783 165.393 274.15C166.926 273.483 168.676 273.15 170.643 273.15C172.81 273.15 174.66 273.517 176.193 274.25C177.76 274.983 179.026 275.967 179.993 277.2C180.993 278.433 181.71 279.867 182.143 281.5C182.61 283.1 182.843 284.783 182.843 286.55V288.75H165.993V289.15C165.993 290.883 166.46 292.267 167.393 293.3C168.326 294.3 169.793 294.8 171.793 294.8C173.326 294.8 174.576 294.5 175.543 293.9C176.51 293.267 177.41 292.517 178.243 291.65L181.943 296.25C180.776 297.617 179.243 298.683 177.343 299.45C175.476 300.217 173.343 300.6 170.943 300.6ZM170.793 278.6C169.293 278.6 168.11 279.1 167.243 280.1C166.41 281.067 165.993 282.367 165.993 284V284.4H175.193V283.95C175.193 282.35 174.826 281.067 174.093 280.1C173.393 279.1 172.293 278.6 170.793 278.6ZM199.886 263H207.286V278.2H207.586C208.052 276.833 208.869 275.65 210.036 274.65C211.202 273.65 212.819 273.15 214.886 273.15C217.586 273.15 219.619 274.05 220.986 275.85C222.386 277.65 223.086 280.217 223.086 283.55V300H215.686V284.15C215.686 282.45 215.419 281.2 214.886 280.4C214.352 279.567 213.402 279.15 212.036 279.15C211.436 279.15 210.852 279.233 210.286 279.4C209.719 279.533 209.202 279.767 208.736 280.1C208.302 280.433 207.952 280.85 207.686 281.35C207.419 281.817 207.286 282.367 207.286 283V300H199.886V263ZM240.621 300.6C238.621 300.6 236.837 300.283 235.271 299.65C233.704 298.983 232.371 298.067 231.271 296.9C230.204 295.7 229.387 294.25 228.821 292.55C228.287 290.85 228.021 288.95 228.021 286.85C228.021 284.783 228.287 282.917 228.821 281.25C229.354 279.55 230.137 278.1 231.171 276.9C232.237 275.7 233.537 274.783 235.071 274.15C236.604 273.483 238.354 273.15 240.321 273.15C242.487 273.15 244.337 273.517 245.871 274.25C247.437 274.983 248.704 275.967 249.671 277.2C250.671 278.433 251.387 279.867 251.821 281.5C252.287 283.1 252.521 284.783 252.521 286.55V288.75H235.671V289.15C235.671 290.883 236.137 292.267 237.071 293.3C238.004 294.3 239.471 294.8 241.471 294.8C243.004 294.8 244.254 294.5 245.221 293.9C246.187 293.267 247.087 292.517 247.921 291.65L251.621 296.25C250.454 297.617 248.921 298.683 247.021 299.45C245.154 300.217 243.021 300.6 240.621 300.6ZM240.471 278.6C238.971 278.6 237.787 279.1 236.921 280.1C236.087 281.067 235.671 282.367 235.671 284V284.4H244.871V283.95C244.871 282.35 244.504 281.067 243.771 280.1C243.071 279.1 241.971 278.6 240.471 278.6ZM265.097 300C262.564 300 260.697 299.383 259.497 298.15C258.33 296.917 257.747 295.133 257.747 292.8V263H265.147V294.25H268.447V300H265.097ZM272.884 273.75H280.284V278.15H280.534C280.9 276.683 281.734 275.483 283.034 274.55C284.367 273.617 285.884 273.15 287.584 273.15C290.917 273.15 293.434 274.317 295.134 276.65C296.834 278.983 297.684 282.383 297.684 286.85C297.684 291.317 296.834 294.733 295.134 297.1C293.434 299.433 290.917 300.6 287.584 300.6C286.717 300.6 285.9 300.467 285.134 300.2C284.367 299.967 283.667 299.633 283.034 299.2C282.434 298.733 281.917 298.2 281.484 297.6C281.05 296.967 280.734 296.3 280.534 295.6H280.284V310H272.884V273.75ZM285.134 294.6C286.534 294.6 287.684 294.117 288.584 293.15C289.517 292.15 289.984 290.817 289.984 289.15V284.6C289.984 282.933 289.517 281.617 288.584 280.65C287.684 279.65 286.534 279.15 285.134 279.15C283.734 279.15 282.567 279.5 281.634 280.2C280.734 280.867 280.284 281.8 280.284 283V290.75C280.284 291.95 280.734 292.9 281.634 293.6C282.567 294.267 283.734 294.6 285.134 294.6ZM331.17 273.75H338.07L327.97 304.05C327.303 306.083 326.353 307.583 325.12 308.55C323.92 309.517 322.187 310 319.92 310H315.32V304.25H320.27L321.17 301.35L311.97 273.75H319.32L323.17 286L325.07 293.6H325.37L327.32 286L331.17 273.75ZM352.088 300.6C350.155 300.6 348.422 300.283 346.888 299.65C345.388 299.017 344.105 298.1 343.038 296.9C342.005 295.7 341.205 294.25 340.638 292.55C340.072 290.85 339.788 288.95 339.788 286.85C339.788 284.75 340.072 282.85 340.638 281.15C341.205 279.45 342.005 278.017 343.038 276.85C344.105 275.65 345.388 274.733 346.888 274.1C348.422 273.467 350.155 273.15 352.088 273.15C354.022 273.15 355.738 273.467 357.238 274.1C358.772 274.733 360.055 275.65 361.088 276.85C362.155 278.017 362.972 279.45 363.538 281.15C364.105 282.85 364.388 284.75 364.388 286.85C364.388 288.95 364.105 290.85 363.538 292.55C362.972 294.25 362.155 295.7 361.088 296.9C360.055 298.1 358.772 299.017 357.238 299.65C355.738 300.283 354.022 300.6 352.088 300.6ZM352.088 294.75C353.555 294.75 354.688 294.3 355.488 293.4C356.288 292.5 356.688 291.217 356.688 289.55V284.2C356.688 282.533 356.288 281.25 355.488 280.35C354.688 279.45 353.555 279 352.088 279C350.622 279 349.488 279.45 348.688 280.35C347.888 281.25 347.488 282.533 347.488 284.2V289.55C347.488 291.217 347.888 292.5 348.688 293.4C349.488 294.3 350.622 294.75 352.088 294.75ZM385.161 295.6H384.911C384.678 296.267 384.361 296.9 383.961 297.5C383.594 298.1 383.111 298.633 382.511 299.1C381.911 299.567 381.194 299.933 380.361 300.2C379.561 300.467 378.628 300.6 377.561 300.6C374.861 300.6 372.811 299.717 371.411 297.95C370.044 296.15 369.361 293.583 369.361 290.25V273.75H376.761V289.6C376.761 291.2 377.044 292.433 377.611 293.3C378.178 294.167 379.144 294.6 380.511 294.6C381.078 294.6 381.644 294.517 382.211 294.35C382.778 294.183 383.278 293.95 383.711 293.65C384.144 293.317 384.494 292.917 384.761 292.45C385.028 291.983 385.161 291.433 385.161 290.8V273.75H392.561V300H385.161V295.6ZM644.139 300C642.806 300 641.689 299.583 640.789 298.75C639.922 297.917 639.372 296.8 639.139 295.4H638.839C638.439 297.1 637.556 298.4 636.189 299.3C634.822 300.167 633.139 300.6 631.139 300.6C628.506 300.6 626.489 299.9 625.089 298.5C623.689 297.1 622.989 295.25 622.989 292.95C622.989 290.183 623.989 288.133 625.989 286.8C628.022 285.433 630.772 284.75 634.239 284.75H638.389V283.1C638.389 281.833 638.056 280.833 637.389 280.1C636.722 279.333 635.606 278.95 634.039 278.95C632.572 278.95 631.406 279.267 630.539 279.9C629.672 280.533 628.956 281.25 628.389 282.05L623.989 278.15C625.056 276.583 626.389 275.367 627.989 274.5C629.622 273.6 631.822 273.15 634.589 273.15C638.322 273.15 641.122 273.967 642.989 275.6C644.856 277.233 645.789 279.617 645.789 282.75V294.25H648.239V300H644.139ZM633.889 295.45C635.122 295.45 636.172 295.183 637.039 294.65C637.939 294.117 638.389 293.25 638.389 292.05V288.95H634.789C631.889 288.95 630.439 289.933 630.439 291.9V292.65C630.439 293.617 630.739 294.333 631.339 294.8C631.939 295.233 632.789 295.45 633.889 295.45ZM653.206 300V273.75H660.606V278.2H660.906C661.373 276.833 662.189 275.65 663.356 274.65C664.523 273.65 666.139 273.15 668.206 273.15C670.906 273.15 672.939 274.05 674.306 275.85C675.706 277.65 676.406 280.217 676.406 283.55V300H669.006V284.15C669.006 282.45 668.739 281.2 668.206 280.4C667.673 279.567 666.723 279.15 665.356 279.15C664.756 279.15 664.173 279.233 663.606 279.4C663.039 279.533 662.523 279.767 662.056 280.1C661.623 280.433 661.273 280.85 661.006 281.35C660.739 281.817 660.606 282.367 660.606 283V300H653.206ZM698.65 273.75H705.55L695.45 304.05C694.784 306.083 693.834 307.583 692.6 308.55C691.4 309.517 689.667 310 687.4 310H682.8V304.25H687.75L688.65 301.35L679.45 273.75H686.8L690.65 286L692.55 293.6H692.85L694.8 286L698.65 273.75ZM737.226 295.6H736.976C736.776 296.3 736.459 296.967 736.026 297.6C735.592 298.2 735.059 298.733 734.426 299.2C733.826 299.633 733.126 299.967 732.326 300.2C731.559 300.467 730.759 300.6 729.926 300.6C726.592 300.6 724.076 299.433 722.376 297.1C720.676 294.733 719.826 291.317 719.826 286.85C719.826 282.383 720.676 278.983 722.376 276.65C724.076 274.317 726.592 273.15 729.926 273.15C731.626 273.15 733.126 273.617 734.426 274.55C735.759 275.483 736.609 276.683 736.976 278.15H737.226V263H744.626V300H737.226V295.6ZM732.376 294.6C733.776 294.6 734.926 294.267 735.826 293.6C736.759 292.9 737.226 291.95 737.226 290.75V283C737.226 281.8 736.759 280.867 735.826 280.2C734.926 279.5 733.776 279.15 732.376 279.15C730.976 279.15 729.809 279.65 728.876 280.65C727.976 281.617 727.526 282.933 727.526 284.6V289.15C727.526 290.817 727.976 292.15 728.876 293.15C729.809 294.117 730.976 294.6 732.376 294.6ZM755.246 270.95C753.746 270.95 752.646 270.617 751.946 269.95C751.279 269.25 750.946 268.367 750.946 267.3V266.2C750.946 265.133 751.279 264.267 751.946 263.6C752.646 262.9 753.746 262.55 755.246 262.55C756.746 262.55 757.829 262.9 758.496 263.6C759.196 264.267 759.546 265.133 759.546 266.2V267.3C759.546 268.367 759.196 269.25 758.496 269.95C757.829 270.617 756.746 270.95 755.246 270.95ZM751.546 273.75H758.946V300H751.546V273.75ZM790.152 301.9C790.152 303.3 789.902 304.533 789.402 305.6C788.936 306.667 788.152 307.567 787.052 308.3C785.952 309.067 784.486 309.633 782.652 310C780.852 310.4 778.619 310.6 775.952 310.6C773.686 310.6 771.752 310.45 770.152 310.15C768.586 309.883 767.302 309.483 766.302 308.95C765.336 308.45 764.619 307.817 764.152 307.05C763.719 306.317 763.502 305.467 763.502 304.5C763.502 303.033 763.936 301.883 764.802 301.05C765.669 300.217 766.869 299.7 768.402 299.5V298.95C767.136 298.717 766.186 298.183 765.552 297.35C764.919 296.483 764.602 295.483 764.602 294.35C764.602 293.65 764.736 293.05 765.002 292.55C765.302 292.017 765.669 291.567 766.102 291.2C766.569 290.8 767.102 290.483 767.702 290.25C768.302 290.017 768.902 289.833 769.502 289.7V289.5C767.902 288.767 766.719 287.767 765.952 286.5C765.186 285.2 764.802 283.7 764.802 282C764.802 279.333 765.719 277.2 767.552 275.6C769.419 273.967 772.252 273.15 776.052 273.15C777.786 273.15 779.269 273.317 780.502 273.65V272.65C780.502 271.25 780.836 270.25 781.502 269.65C782.202 269.017 783.186 268.7 784.452 268.7H788.602V274.2H782.802V274.5C784.336 275.233 785.469 276.25 786.202 277.55C786.936 278.817 787.302 280.3 787.302 282C787.302 284.633 786.369 286.75 784.502 288.35C782.669 289.917 779.852 290.7 776.052 290.7C774.352 290.7 772.802 290.517 771.402 290.15C770.636 290.65 770.252 291.35 770.252 292.25C770.252 292.883 770.486 293.383 770.952 293.75C771.452 294.083 772.269 294.25 773.402 294.25H781.002C784.202 294.25 786.519 294.917 787.952 296.25C789.419 297.583 790.152 299.467 790.152 301.9ZM783.202 302.9C783.202 302.133 782.902 301.55 782.302 301.15C781.702 300.75 780.652 300.55 779.152 300.55H770.152C769.819 300.883 769.569 301.25 769.402 301.65C769.269 302.083 769.202 302.5 769.202 302.9C769.202 303.867 769.619 304.567 770.452 305C771.286 305.467 772.702 305.7 774.702 305.7H777.702C779.702 305.7 781.119 305.467 781.952 305C782.786 304.567 783.202 303.867 783.202 302.9ZM776.052 285.85C777.519 285.85 778.602 285.55 779.302 284.95C780.036 284.317 780.402 283.417 780.402 282.25V281.65C780.402 280.483 780.036 279.6 779.302 279C778.602 278.367 777.519 278.05 776.052 278.05C774.586 278.05 773.486 278.367 772.752 279C772.052 279.6 771.702 280.483 771.702 281.65V282.25C771.702 283.417 772.052 284.317 772.752 284.95C773.486 285.55 774.586 285.85 776.052 285.85ZM797.14 270.95C795.64 270.95 794.54 270.617 793.84 269.95C793.174 269.25 792.84 268.367 792.84 267.3V266.2C792.84 265.133 793.174 264.267 793.84 263.6C794.54 262.9 795.64 262.55 797.14 262.55C798.64 262.55 799.724 262.9 800.39 263.6C801.09 264.267 801.44 265.133 801.44 266.2V267.3C801.44 268.367 801.09 269.25 800.39 269.95C799.724 270.617 798.64 270.95 797.14 270.95ZM793.44 273.75H800.84V300H793.44V273.75ZM816.947 300C814.38 300 812.43 299.35 811.097 298.05C809.797 296.75 809.147 294.85 809.147 292.35V279.5H805.447V273.75H807.297C808.297 273.75 808.98 273.517 809.347 273.05C809.714 272.55 809.897 271.85 809.897 270.95V266.65H816.547V273.75H821.747V279.5H816.547V294.25H821.347V300H816.947ZM846.288 300C844.954 300 843.838 299.583 842.938 298.75C842.071 297.917 841.521 296.8 841.288 295.4H840.988C840.588 297.1 839.704 298.4 838.338 299.3C836.971 300.167 835.288 300.6 833.288 300.6C830.654 300.6 828.638 299.9 827.238 298.5C825.838 297.1 825.138 295.25 825.138 292.95C825.138 290.183 826.138 288.133 828.138 286.8C830.171 285.433 832.921 284.75 836.388 284.75H840.538V283.1C840.538 281.833 840.204 280.833 839.538 280.1C838.871 279.333 837.754 278.95 836.188 278.95C834.721 278.95 833.554 279.267 832.688 279.9C831.821 280.533 831.104 281.25 830.538 282.05L826.138 278.15C827.204 276.583 828.538 275.367 830.138 274.5C831.771 273.6 833.971 273.15 836.738 273.15C840.471 273.15 843.271 273.967 845.138 275.6C847.004 277.233 847.938 279.617 847.938 282.75V294.25H850.388V300H846.288ZM836.038 295.45C837.271 295.45 838.321 295.183 839.188 294.65C840.088 294.117 840.538 293.25 840.538 292.05V288.95H836.938C834.038 288.95 832.588 289.933 832.588 291.9V292.65C832.588 293.617 832.888 294.333 833.488 294.8C834.088 295.233 834.938 295.45 836.038 295.45ZM862.704 300C860.171 300 858.304 299.383 857.104 298.15C855.938 296.917 855.354 295.133 855.354 292.8V263H862.754V294.25H866.054V300H862.704ZM886.007 270.95C884.507 270.95 883.407 270.617 882.707 269.95C882.041 269.25 881.707 268.367 881.707 267.3V266.2C881.707 265.133 882.041 264.267 882.707 263.6C883.407 262.9 884.507 262.55 886.007 262.55C887.507 262.55 888.591 262.9 889.257 263.6C889.957 264.267 890.307 265.133 890.307 266.2V267.3C890.307 268.367 889.957 269.25 889.257 269.95C888.591 270.617 887.507 270.95 886.007 270.95ZM882.307 273.75H889.707V300H882.307V273.75ZM896.614 300V273.75H904.014V278.2H904.314C904.781 276.833 905.597 275.65 906.764 274.65C907.931 273.65 909.547 273.15 911.614 273.15C914.314 273.15 916.347 274.05 917.714 275.85C919.114 277.65 919.814 280.217 919.814 283.55V300H912.414V284.15C912.414 282.45 912.147 281.2 911.614 280.4C911.081 279.567 910.131 279.15 908.764 279.15C908.164 279.15 907.581 279.233 907.014 279.4C906.447 279.533 905.931 279.767 905.464 280.1C905.031 280.433 904.681 280.85 904.414 281.35C904.147 281.817 904.014 282.367 904.014 283V300H896.614ZM935.599 300C933.033 300 931.083 299.35 929.749 298.05C928.449 296.75 927.799 294.85 927.799 292.35V279.5H924.099V273.75H925.949C926.949 273.75 927.633 273.517 927.999 273.05C928.366 272.55 928.549 271.85 928.549 270.95V266.65H935.199V273.75H940.399V279.5H935.199V294.25H939.999V300H935.599ZM956.295 300.6C954.295 300.6 952.511 300.283 950.945 299.65C949.378 298.983 948.045 298.067 946.945 296.9C945.878 295.7 945.061 294.25 944.495 292.55C943.961 290.85 943.695 288.95 943.695 286.85C943.695 284.783 943.961 282.917 944.495 281.25C945.028 279.55 945.811 278.1 946.845 276.9C947.911 275.7 949.211 274.783 950.745 274.15C952.278 273.483 954.028 273.15 955.995 273.15C958.161 273.15 960.011 273.517 961.545 274.25C963.111 274.983 964.378 275.967 965.345 277.2C966.345 278.433 967.061 279.867 967.495 281.5C967.961 283.1 968.195 284.783 968.195 286.55V288.75H951.345V289.15C951.345 290.883 951.811 292.267 952.745 293.3C953.678 294.3 955.145 294.8 957.145 294.8C958.678 294.8 959.928 294.5 960.895 293.9C961.861 293.267 962.761 292.517 963.595 291.65L967.295 296.25C966.128 297.617 964.595 298.683 962.695 299.45C960.828 300.217 958.695 300.6 956.295 300.6ZM956.145 278.6C954.645 278.6 953.461 279.1 952.595 280.1C951.761 281.067 951.345 282.367 951.345 284V284.4H960.545V283.95C960.545 282.35 960.178 281.067 959.445 280.1C958.745 279.1 957.645 278.6 956.145 278.6ZM973.421 300V273.75H980.821V279.45H981.071C981.204 278.717 981.437 278.017 981.771 277.35C982.104 276.65 982.537 276.033 983.071 275.5C983.637 274.967 984.304 274.55 985.071 274.25C985.837 273.917 986.737 273.75 987.771 273.75H989.071V280.65H987.221C985.054 280.65 983.437 280.933 982.371 281.5C981.337 282.067 980.821 283.117 980.821 284.65V300H973.421ZM995.375 279.5H991.675V273.75H995.375V270.65C995.375 268.117 996.042 266.217 997.375 264.95C998.708 263.65 1000.66 263 1003.23 263H1008.03V268.75H1002.78V273.75H1008.03V279.5H1002.78V300H995.375V279.5ZM1031.54 300C1030.21 300 1029.09 299.583 1028.19 298.75C1027.32 297.917 1026.77 296.8 1026.54 295.4H1026.24C1025.84 297.1 1024.96 298.4 1023.59 299.3C1022.22 300.167 1020.54 300.6 1018.54 300.6C1015.91 300.6 1013.89 299.9 1012.49 298.5C1011.09 297.1 1010.39 295.25 1010.39 292.95C1010.39 290.183 1011.39 288.133 1013.39 286.8C1015.42 285.433 1018.17 284.75 1021.64 284.75H1025.79V283.1C1025.79 281.833 1025.46 280.833 1024.79 280.1C1024.12 279.333 1023.01 278.95 1021.44 278.95C1019.97 278.95 1018.81 279.267 1017.94 279.9C1017.07 280.533 1016.36 281.25 1015.79 282.05L1011.39 278.15C1012.46 276.583 1013.79 275.367 1015.39 274.5C1017.02 273.6 1019.22 273.15 1021.99 273.15C1025.72 273.15 1028.52 273.967 1030.39 275.6C1032.26 277.233 1033.19 279.617 1033.19 282.75V294.25H1035.64V300H1031.54ZM1021.29 295.45C1022.52 295.45 1023.57 295.183 1024.44 294.65C1025.34 294.117 1025.79 293.25 1025.79 292.05V288.95H1022.19C1019.29 288.95 1017.84 289.933 1017.84 291.9V292.65C1017.84 293.617 1018.14 294.333 1018.74 294.8C1019.34 295.233 1020.19 295.45 1021.29 295.45ZM1051.21 300.6C1049.24 300.6 1047.49 300.283 1045.96 299.65C1044.42 298.983 1043.14 298.067 1042.11 296.9C1041.07 295.7 1040.29 294.25 1039.76 292.55C1039.22 290.85 1038.96 288.95 1038.96 286.85C1038.96 284.75 1039.22 282.867 1039.76 281.2C1040.29 279.5 1041.07 278.05 1042.11 276.85C1043.14 275.65 1044.42 274.733 1045.96 274.1C1047.49 273.467 1049.24 273.15 1051.21 273.15C1053.87 273.15 1056.09 273.75 1057.86 274.95C1059.66 276.15 1060.94 277.833 1061.71 280L1055.71 282.6C1055.47 281.6 1054.99 280.75 1054.26 280.05C1053.52 279.35 1052.51 279 1051.21 279C1049.71 279 1048.57 279.5 1047.81 280.5C1047.04 281.467 1046.66 282.783 1046.66 284.45V289.35C1046.66 291.017 1047.04 292.333 1047.81 293.3C1048.57 294.267 1049.71 294.75 1051.21 294.75C1052.54 294.75 1053.59 294.4 1054.36 293.7C1055.16 292.967 1055.74 292.017 1056.11 290.85L1061.86 293.35C1060.99 295.85 1059.64 297.683 1057.81 298.85C1056.01 300.017 1053.81 300.6 1051.21 300.6ZM1077.14 300.6C1075.14 300.6 1073.36 300.283 1071.79 299.65C1070.23 298.983 1068.89 298.067 1067.79 296.9C1066.73 295.7 1065.91 294.25 1065.34 292.55C1064.81 290.85 1064.54 288.95 1064.54 286.85C1064.54 284.783 1064.81 282.917 1065.34 281.25C1065.88 279.55 1066.66 278.1 1067.69 276.9C1068.76 275.7 1070.06 274.783 1071.59 274.15C1073.13 273.483 1074.88 273.15 1076.84 273.15C1079.01 273.15 1080.86 273.517 1082.39 274.25C1083.96 274.983 1085.23 275.967 1086.19 277.2C1087.19 278.433 1087.91 279.867 1088.34 281.5C1088.81 283.1 1089.04 284.783 1089.04 286.55V288.75H1072.19V289.15C1072.19 290.883 1072.66 292.267 1073.59 293.3C1074.53 294.3 1075.99 294.8 1077.99 294.8C1079.53 294.8 1080.78 294.5 1081.74 293.9C1082.71 293.267 1083.61 292.517 1084.44 291.65L1088.14 296.25C1086.98 297.617 1085.44 298.683 1083.54 299.45C1081.68 300.217 1079.54 300.6 1077.14 300.6ZM1076.99 278.6C1075.49 278.6 1074.31 279.1 1073.44 280.1C1072.61 281.067 1072.19 282.367 1072.19 284V284.4H1081.39V283.95C1081.39 282.35 1081.03 281.067 1080.29 280.1C1079.59 279.1 1078.49 278.6 1076.99 278.6ZM286.179 338.75H293.329L295.879 349.35L297.679 357.35H297.879L299.979 349.35L302.979 338.75H309.729L312.779 349.35L314.929 357.35H315.129L316.929 349.35L319.479 338.75H326.329L319.079 365H311.329L308.129 353.9L306.279 347.1H306.129L304.329 353.9L301.129 365H293.529L286.179 338.75ZM334.421 335.95C332.921 335.95 331.821 335.617 331.121 334.95C330.454 334.25 330.121 333.367 330.121 332.3V331.2C330.121 330.133 330.454 329.267 331.121 328.6C331.821 327.9 332.921 327.55 334.421 327.55C335.921 327.55 337.004 327.9 337.671 328.6C338.371 329.267 338.721 330.133 338.721 331.2V332.3C338.721 333.367 338.371 334.25 337.671 334.95C337.004 335.617 335.921 335.95 334.421 335.95ZM330.721 338.75H338.121V365H330.721V338.75ZM354.227 365C351.66 365 349.71 364.35 348.377 363.05C347.077 361.75 346.427 359.85 346.427 357.35V344.5H342.727V338.75H344.577C345.577 338.75 346.26 338.517 346.627 338.05C346.994 337.55 347.177 336.85 347.177 335.95V331.65H353.827V338.75H359.027V344.5H353.827V359.25H358.627V365H354.227ZM364.168 328H371.568V343.2H371.868C372.334 341.833 373.151 340.65 374.318 339.65C375.484 338.65 377.101 338.15 379.168 338.15C381.868 338.15 383.901 339.05 385.268 340.85C386.668 342.65 387.368 345.217 387.368 348.55V365H379.968V349.15C379.968 347.45 379.701 346.2 379.168 345.4C378.634 344.567 377.684 344.15 376.318 344.15C375.718 344.15 375.134 344.233 374.568 344.4C374.001 344.533 373.484 344.767 373.018 345.1C372.584 345.433 372.234 345.85 371.968 346.35C371.701 346.817 371.568 347.367 371.568 348V365H364.168V328Z" fill="white"/>
<path d="M411.263 300V273.75H418.663V278.2H418.963C419.429 276.833 420.246 275.65 421.413 274.65C422.579 273.65 424.196 273.15 426.263 273.15C428.963 273.15 430.996 274.05 432.363 275.85C433.763 277.65 434.463 280.217 434.463 283.55V300H427.063V284.15C427.063 282.45 426.796 281.2 426.263 280.4C425.729 279.567 424.779 279.15 423.413 279.15C422.813 279.15 422.229 279.233 421.663 279.4C421.096 279.533 420.579 279.767 420.113 280.1C419.679 280.433 419.329 280.85 419.063 281.35C418.796 281.817 418.663 282.367 418.663 283V300H411.263ZM460.448 300C459.114 300 457.998 299.583 457.098 298.75C456.231 297.917 455.681 296.8 455.448 295.4H455.148C454.748 297.1 453.864 298.4 452.498 299.3C451.131 300.167 449.448 300.6 447.448 300.6C444.814 300.6 442.798 299.9 441.398 298.5C439.998 297.1 439.298 295.25 439.298 292.95C439.298 290.183 440.298 288.133 442.298 286.8C444.331 285.433 447.081 284.75 450.548 284.75H454.698V283.1C454.698 281.833 454.364 280.833 453.698 280.1C453.031 279.333 451.914 278.95 450.348 278.95C448.881 278.95 447.714 279.267 446.848 279.9C445.981 280.533 445.264 281.25 444.698 282.05L440.298 278.15C441.364 276.583 442.698 275.367 444.298 274.5C445.931 273.6 448.131 273.15 450.898 273.15C454.631 273.15 457.431 273.967 459.298 275.6C461.164 277.233 462.098 279.617 462.098 282.75V294.25H464.548V300H460.448ZM450.198 295.45C451.431 295.45 452.481 295.183 453.348 294.65C454.248 294.117 454.698 293.25 454.698 292.05V288.95H451.098C448.198 288.95 446.748 289.933 446.748 291.9V292.65C446.748 293.617 447.048 294.333 447.648 294.8C448.248 295.233 449.098 295.45 450.198 295.45ZM474.626 300L466.026 273.75H473.326L476.576 284.35L479.026 293.85H479.426L481.876 284.35L485.026 273.75H492.026L483.426 300H474.626ZM499.63 270.95C498.13 270.95 497.03 270.617 496.33 269.95C495.664 269.25 495.33 268.367 495.33 267.3V266.2C495.33 265.133 495.664 264.267 496.33 263.6C497.03 262.9 498.13 262.55 499.63 262.55C501.13 262.55 502.214 262.9 502.88 263.6C503.58 264.267 503.93 265.133 503.93 266.2V267.3C503.93 268.367 503.58 269.25 502.88 269.95C502.214 270.617 501.13 270.95 499.63 270.95ZM495.93 273.75H503.33V300H495.93V273.75ZM534.537 301.9C534.537 303.3 534.287 304.533 533.787 305.6C533.32 306.667 532.537 307.567 531.437 308.3C530.337 309.067 528.87 309.633 527.037 310C525.237 310.4 523.004 310.6 520.337 310.6C518.07 310.6 516.137 310.45 514.537 310.15C512.97 309.883 511.687 309.483 510.687 308.95C509.72 308.45 509.004 307.817 508.537 307.05C508.104 306.317 507.887 305.467 507.887 304.5C507.887 303.033 508.32 301.883 509.187 301.05C510.054 300.217 511.254 299.7 512.787 299.5V298.95C511.52 298.717 510.57 298.183 509.937 297.35C509.304 296.483 508.987 295.483 508.987 294.35C508.987 293.65 509.12 293.05 509.387 292.55C509.687 292.017 510.054 291.567 510.487 291.2C510.954 290.8 511.487 290.483 512.087 290.25C512.687 290.017 513.287 289.833 513.887 289.7V289.5C512.287 288.767 511.104 287.767 510.337 286.5C509.57 285.2 509.187 283.7 509.187 282C509.187 279.333 510.104 277.2 511.937 275.6C513.804 273.967 516.637 273.15 520.437 273.15C522.17 273.15 523.654 273.317 524.887 273.65V272.65C524.887 271.25 525.22 270.25 525.887 269.65C526.587 269.017 527.57 268.7 528.837 268.7H532.987V274.2H527.187V274.5C528.72 275.233 529.854 276.25 530.587 277.55C531.32 278.817 531.687 280.3 531.687 282C531.687 284.633 530.754 286.75 528.887 288.35C527.054 289.917 524.237 290.7 520.437 290.7C518.737 290.7 517.187 290.517 515.787 290.15C515.02 290.65 514.637 291.35 514.637 292.25C514.637 292.883 514.87 293.383 515.337 293.75C515.837 294.083 516.654 294.25 517.787 294.25H525.387C528.587 294.25 530.904 294.917 532.337 296.25C533.804 297.583 534.537 299.467 534.537 301.9ZM527.587 302.9C527.587 302.133 527.287 301.55 526.687 301.15C526.087 300.75 525.037 300.55 523.537 300.55H514.537C514.204 300.883 513.954 301.25 513.787 301.65C513.654 302.083 513.587 302.5 513.587 302.9C513.587 303.867 514.004 304.567 514.837 305C515.67 305.467 517.087 305.7 519.087 305.7H522.087C524.087 305.7 525.504 305.467 526.337 305C527.17 304.567 527.587 303.867 527.587 302.9ZM520.437 285.85C521.904 285.85 522.987 285.55 523.687 284.95C524.42 284.317 524.787 283.417 524.787 282.25V281.65C524.787 280.483 524.42 279.6 523.687 279C522.987 278.367 521.904 278.05 520.437 278.05C518.97 278.05 517.87 278.367 517.137 279C516.437 279.6 516.087 280.483 516.087 281.65V282.25C516.087 283.417 516.437 284.317 517.137 284.95C517.87 285.55 518.97 285.85 520.437 285.85ZM557.127 300C555.794 300 554.677 299.583 553.777 298.75C552.911 297.917 552.361 296.8 552.127 295.4H551.827C551.427 297.1 550.544 298.4 549.177 299.3C547.811 300.167 546.127 300.6 544.127 300.6C541.494 300.6 539.477 299.9 538.077 298.5C536.677 297.1 535.977 295.25 535.977 292.95C535.977 290.183 536.977 288.133 538.977 286.8C541.011 285.433 543.761 284.75 547.227 284.75H551.377V283.1C551.377 281.833 551.044 280.833 550.377 280.1C549.711 279.333 548.594 278.95 547.027 278.95C545.561 278.95 544.394 279.267 543.527 279.9C542.661 280.533 541.944 281.25 541.377 282.05L536.977 278.15C538.044 276.583 539.377 275.367 540.977 274.5C542.611 273.6 544.811 273.15 547.577 273.15C551.311 273.15 554.111 273.967 555.977 275.6C557.844 277.233 558.777 279.617 558.777 282.75V294.25H561.227V300H557.127ZM546.877 295.45C548.111 295.45 549.161 295.183 550.027 294.65C550.927 294.117 551.377 293.25 551.377 292.05V288.95H547.777C544.877 288.95 543.427 289.933 543.427 291.9V292.65C543.427 293.617 543.727 294.333 544.327 294.8C544.927 295.233 545.777 295.45 546.877 295.45ZM575.101 300C572.535 300 570.585 299.35 569.251 298.05C567.951 296.75 567.301 294.85 567.301 292.35V279.5H563.601V273.75H565.451C566.451 273.75 567.135 273.517 567.501 273.05C567.868 272.55 568.051 271.85 568.051 270.95V266.65H574.701V273.75H579.901V279.5H574.701V294.25H579.501V300H575.101ZM595.796 300.6C593.796 300.6 592.013 300.283 590.446 299.65C588.88 298.983 587.546 298.067 586.446 296.9C585.38 295.7 584.563 294.25 583.996 292.55C583.463 290.85 583.196 288.95 583.196 286.85C583.196 284.783 583.463 282.917 583.996 281.25C584.53 279.55 585.313 278.1 586.346 276.9C587.413 275.7 588.713 274.783 590.246 274.15C591.78 273.483 593.53 273.15 595.496 273.15C597.663 273.15 599.513 273.517 601.046 274.25C602.613 274.983 603.88 275.967 604.846 277.2C605.846 278.433 606.563 279.867 606.996 281.5C607.463 283.1 607.696 284.783 607.696 286.55V288.75H590.846V289.15C590.846 290.883 591.313 292.267 592.246 293.3C593.18 294.3 594.646 294.8 596.646 294.8C598.18 294.8 599.43 294.5 600.396 293.9C601.363 293.267 602.263 292.517 603.096 291.65L606.796 296.25C605.63 297.617 604.096 298.683 602.196 299.45C600.33 300.217 598.196 300.6 595.796 300.6ZM595.646 278.6C594.146 278.6 592.963 279.1 592.096 280.1C591.263 281.067 590.846 282.367 590.846 284V284.4H600.046V283.95C600.046 282.35 599.68 281.067 598.946 280.1C598.246 279.1 597.146 278.6 595.646 278.6ZM414.969 365C412.403 365 410.453 364.35 409.119 363.05C407.819 361.75 407.169 359.85 407.169 357.35V344.5H403.469V338.75H405.319C406.319 338.75 407.003 338.517 407.369 338.05C407.736 337.55 407.919 336.85 407.919 335.95V331.65H414.569V338.75H419.769V344.5H414.569V359.25H419.369V365H414.969ZM435.665 365.6C433.665 365.6 431.881 365.283 430.315 364.65C428.748 363.983 427.415 363.067 426.315 361.9C425.248 360.7 424.431 359.25 423.865 357.55C423.331 355.85 423.065 353.95 423.065 351.85C423.065 349.783 423.331 347.917 423.865 346.25C424.398 344.55 425.181 343.1 426.215 341.9C427.281 340.7 428.581 339.783 430.115 339.15C431.648 338.483 433.398 338.15 435.365 338.15C437.531 338.15 439.381 338.517 440.915 339.25C442.481 339.983 443.748 340.967 444.715 342.2C445.715 343.433 446.431 344.867 446.865 346.5C447.331 348.1 447.565 349.783 447.565 351.55V353.75H430.715V354.15C430.715 355.883 431.181 357.267 432.115 358.3C433.048 359.3 434.515 359.8 436.515 359.8C438.048 359.8 439.298 359.5 440.265 358.9C441.231 358.267 442.131 357.517 442.965 356.65L446.665 361.25C445.498 362.617 443.965 363.683 442.065 364.45C440.198 365.217 438.065 365.6 435.665 365.6ZM435.515 343.6C434.015 343.6 432.831 344.1 431.965 345.1C431.131 346.067 430.715 347.367 430.715 349V349.4H439.915V348.95C439.915 347.35 439.548 346.067 438.815 345.1C438.115 344.1 437.015 343.6 435.515 343.6ZM449.46 365L458.11 351.65L449.56 338.75H457.96L462.86 347H463.06L467.81 338.75H475.61L466.91 351.9L475.66 365H467.26L462.21 356.45H462.01L457.16 365H449.46ZM489.188 365C486.621 365 484.671 364.35 483.338 363.05C482.038 361.75 481.388 359.85 481.388 357.35V344.5H477.688V338.75H479.538C480.538 338.75 481.221 338.517 481.588 338.05C481.955 337.55 482.138 336.85 482.138 335.95V331.65H488.788V338.75H493.988V344.5H488.788V359.25H493.588V365H489.188ZM530.345 365C529.012 365 527.895 364.583 526.995 363.75C526.128 362.917 525.578 361.8 525.345 360.4H525.045C524.645 362.1 523.762 363.4 522.395 364.3C521.028 365.167 519.345 365.6 517.345 365.6C514.712 365.6 512.695 364.9 511.295 363.5C509.895 362.1 509.195 360.25 509.195 357.95C509.195 355.183 510.195 353.133 512.195 351.8C514.228 350.433 516.978 349.75 520.445 349.75H524.595V348.1C524.595 346.833 524.262 345.833 523.595 345.1C522.928 344.333 521.812 343.95 520.245 343.95C518.778 343.95 517.612 344.267 516.745 344.9C515.878 345.533 515.162 346.25 514.595 347.05L510.195 343.15C511.262 341.583 512.595 340.367 514.195 339.5C515.828 338.6 518.028 338.15 520.795 338.15C524.528 338.15 527.328 338.967 529.195 340.6C531.062 342.233 531.995 344.617 531.995 347.75V359.25H534.445V365H530.345ZM520.095 360.45C521.328 360.45 522.378 360.183 523.245 359.65C524.145 359.117 524.595 358.25 524.595 357.05V353.95H520.995C518.095 353.95 516.645 354.933 516.645 356.9V357.65C516.645 358.617 516.945 359.333 517.545 359.8C518.145 360.233 518.995 360.45 520.095 360.45ZM539.412 365V338.75H546.812V343.2H547.112C547.579 341.833 548.395 340.65 549.562 339.65C550.729 338.65 552.345 338.15 554.412 338.15C557.112 338.15 559.145 339.05 560.512 340.85C561.912 342.65 562.612 345.217 562.612 348.55V365H555.212V349.15C555.212 347.45 554.945 346.2 554.412 345.4C553.879 344.567 552.929 344.15 551.562 344.15C550.962 344.15 550.379 344.233 549.812 344.4C549.245 344.533 548.729 344.767 548.262 345.1C547.829 345.433 547.479 345.85 547.212 346.35C546.945 346.817 546.812 347.367 546.812 348V365H539.412ZM585.297 360.6H585.047C584.847 361.3 584.53 361.967 584.097 362.6C583.664 363.2 583.13 363.733 582.497 364.2C581.897 364.633 581.197 364.967 580.397 365.2C579.63 365.467 578.83 365.6 577.997 365.6C574.664 365.6 572.147 364.433 570.447 362.1C568.747 359.733 567.897 356.317 567.897 351.85C567.897 347.383 568.747 343.983 570.447 341.65C572.147 339.317 574.664 338.15 577.997 338.15C579.697 338.15 581.197 338.617 582.497 339.55C583.83 340.483 584.68 341.683 585.047 343.15H585.297V328H592.697V365H585.297V360.6ZM580.447 359.6C581.847 359.6 582.997 359.267 583.897 358.6C584.83 357.9 585.297 356.95 585.297 355.75V348C585.297 346.8 584.83 345.867 583.897 345.2C582.997 344.5 581.847 344.15 580.447 344.15C579.047 344.15 577.88 344.65 576.947 345.65C576.047 346.617 575.597 347.933 575.597 349.6V354.15C575.597 355.817 576.047 357.15 576.947 358.15C577.88 359.117 579.047 359.6 580.447 359.6ZM617.033 365L608.433 338.75H615.733L618.983 349.35L621.433 358.85H621.833L624.283 349.35L627.433 338.75H634.433L625.833 365H617.033ZM642.038 335.95C640.538 335.95 639.438 335.617 638.738 334.95C638.071 334.25 637.738 333.367 637.738 332.3V331.2C637.738 330.133 638.071 329.267 638.738 328.6C639.438 327.9 640.538 327.55 642.038 327.55C643.538 327.55 644.621 327.9 645.288 328.6C645.988 329.267 646.338 330.133 646.338 331.2V332.3C646.338 333.367 645.988 334.25 645.288 334.95C644.621 335.617 643.538 335.95 642.038 335.95ZM638.338 338.75H645.738V365H638.338V338.75ZM661.544 365.6C659.011 365.6 656.878 365.2 655.144 364.4C653.411 363.567 651.861 362.4 650.494 360.9L654.844 356.5C655.778 357.533 656.811 358.35 657.944 358.95C659.078 359.55 660.361 359.85 661.794 359.85C663.261 359.85 664.278 359.633 664.844 359.2C665.411 358.733 665.694 358.117 665.694 357.35C665.694 356.117 664.811 355.383 663.044 355.15L660.194 354.8C654.294 354.067 651.344 351.367 651.344 346.7C651.344 345.433 651.578 344.283 652.044 343.25C652.544 342.183 653.228 341.283 654.094 340.55C654.994 339.783 656.061 339.2 657.294 338.8C658.561 338.367 659.978 338.15 661.544 338.15C662.911 338.15 664.111 338.25 665.144 338.45C666.211 338.617 667.144 338.883 667.944 339.25C668.778 339.583 669.528 340.017 670.194 340.55C670.894 341.05 671.578 341.617 672.244 342.25L667.994 346.6C667.161 345.767 666.211 345.117 665.144 344.65C664.111 344.15 663.044 343.9 661.944 343.9C660.678 343.9 659.778 344.1 659.244 344.5C658.711 344.9 658.444 345.433 658.444 346.1C658.444 346.8 658.628 347.35 658.994 347.75C659.394 348.117 660.128 348.383 661.194 348.55L664.144 348.95C669.911 349.717 672.794 352.35 672.794 356.85C672.794 358.117 672.528 359.283 671.994 360.35C671.461 361.417 670.694 362.35 669.694 363.15C668.728 363.917 667.544 364.517 666.144 364.95C664.778 365.383 663.244 365.6 661.544 365.6ZM693.34 360.6H693.09C692.856 361.267 692.54 361.9 692.14 362.5C691.773 363.1 691.29 363.633 690.69 364.1C690.09 364.567 689.373 364.933 688.54 365.2C687.74 365.467 686.806 365.6 685.74 365.6C683.04 365.6 680.99 364.717 679.59 362.95C678.223 361.15 677.54 358.583 677.54 355.25V338.75H684.94V354.6C684.94 356.2 685.223 357.433 685.79 358.3C686.356 359.167 687.323 359.6 688.69 359.6C689.256 359.6 689.823 359.517 690.39 359.35C690.956 359.183 691.456 358.95 691.89 358.65C692.323 358.317 692.673 357.917 692.94 357.45C693.206 356.983 693.34 356.433 693.34 355.8V338.75H700.74V365H693.34V360.6ZM727.025 365C725.691 365 724.575 364.583 723.675 363.75C722.808 362.917 722.258 361.8 722.025 360.4H721.725C721.325 362.1 720.441 363.4 719.075 364.3C717.708 365.167 716.025 365.6 714.025 365.6C711.391 365.6 709.375 364.9 707.975 363.5C706.575 362.1 705.875 360.25 705.875 357.95C705.875 355.183 706.875 353.133 708.875 351.8C710.908 350.433 713.658 349.75 717.125 349.75H721.275V348.1C721.275 346.833 720.941 345.833 720.275 345.1C719.608 344.333 718.491 343.95 716.925 343.95C715.458 343.95 714.291 344.267 713.425 344.9C712.558 345.533 711.841 346.25 711.275 347.05L706.875 343.15C707.941 341.583 709.275 340.367 710.875 339.5C712.508 338.6 714.708 338.15 717.475 338.15C721.208 338.15 724.008 338.967 725.875 340.6C727.741 342.233 728.675 344.617 728.675 347.75V359.25H731.125V365H727.025ZM716.775 360.45C718.008 360.45 719.058 360.183 719.925 359.65C720.825 359.117 721.275 358.25 721.275 357.05V353.95H717.675C714.775 353.95 713.325 354.933 713.325 356.9V357.65C713.325 358.617 713.625 359.333 714.225 359.8C714.825 360.233 715.675 360.45 716.775 360.45ZM743.442 365C740.908 365 739.042 364.383 737.842 363.15C736.675 361.917 736.092 360.133 736.092 357.8V328H743.492V359.25H746.792V365H743.442ZM787.345 366.9C787.345 368.3 787.095 369.533 786.595 370.6C786.128 371.667 785.345 372.567 784.245 373.3C783.145 374.067 781.678 374.633 779.845 375C778.045 375.4 775.811 375.6 773.145 375.6C770.878 375.6 768.945 375.45 767.345 375.15C765.778 374.883 764.495 374.483 763.495 373.95C762.528 373.45 761.811 372.817 761.345 372.05C760.911 371.317 760.695 370.467 760.695 369.5C760.695 368.033 761.128 366.883 761.995 366.05C762.861 365.217 764.061 364.7 765.595 364.5V363.95C764.328 363.717 763.378 363.183 762.745 362.35C762.111 361.483 761.795 360.483 761.795 359.35C761.795 358.65 761.928 358.05 762.195 357.55C762.495 357.017 762.861 356.567 763.295 356.2C763.761 355.8 764.295 355.483 764.895 355.25C765.495 355.017 766.095 354.833 766.695 354.7V354.5C765.095 353.767 763.911 352.767 763.145 351.5C762.378 350.2 761.995 348.7 761.995 347C761.995 344.333 762.911 342.2 764.745 340.6C766.611 338.967 769.445 338.15 773.245 338.15C774.978 338.15 776.461 338.317 777.695 338.65V337.65C777.695 336.25 778.028 335.25 778.695 334.65C779.395 334.017 780.378 333.7 781.645 333.7H785.795V339.2H779.995V339.5C781.528 340.233 782.661 341.25 783.395 342.55C784.128 343.817 784.495 345.3 784.495 347C784.495 349.633 783.561 351.75 781.695 353.35C779.861 354.917 777.045 355.7 773.245 355.7C771.545 355.7 769.995 355.517 768.595 355.15C767.828 355.65 767.445 356.35 767.445 357.25C767.445 357.883 767.678 358.383 768.145 358.75C768.645 359.083 769.461 359.25 770.595 359.25H778.195C781.395 359.25 783.711 359.917 785.145 361.25C786.611 362.583 787.345 364.467 787.345 366.9ZM780.395 367.9C780.395 367.133 780.095 366.55 779.495 366.15C778.895 365.75 777.845 365.55 776.345 365.55H767.345C767.011 365.883 766.761 366.25 766.595 366.65C766.461 367.083 766.395 367.5 766.395 367.9C766.395 368.867 766.811 369.567 767.645 370C768.478 370.467 769.895 370.7 771.895 370.7H774.895C776.895 370.7 778.311 370.467 779.145 370C779.978 369.567 780.395 368.867 780.395 367.9ZM773.245 350.85C774.711 350.85 775.795 350.55 776.495 349.95C777.228 349.317 777.595 348.417 777.595 347.25V346.65C777.595 345.483 777.228 344.6 776.495 344C775.795 343.367 774.711 343.05 773.245 343.05C771.778 343.05 770.678 343.367 769.945 344C769.245 344.6 768.895 345.483 768.895 346.65V347.25C768.895 348.417 769.245 349.317 769.945 349.95C770.678 350.55 771.778 350.85 773.245 350.85ZM805.937 360.6H805.687C805.454 361.267 805.137 361.9 804.737 362.5C804.371 363.1 803.887 363.633 803.287 364.1C802.687 364.567 801.971 364.933 801.137 365.2C800.337 365.467 799.404 365.6 798.337 365.6C795.637 365.6 793.587 364.717 792.187 362.95C790.821 361.15 790.137 358.583 790.137 355.25V338.75H797.537V354.6C797.537 356.2 797.821 357.433 798.387 358.3C798.954 359.167 799.921 359.6 801.287 359.6C801.854 359.6 802.421 359.517 802.987 359.35C803.554 359.183 804.054 358.95 804.487 358.65C804.921 358.317 805.271 357.917 805.537 357.45C805.804 356.983 805.937 356.433 805.937 355.8V338.75H813.337V365H805.937V360.6ZM823.922 335.95C822.422 335.95 821.322 335.617 820.622 334.95C819.956 334.25 819.622 333.367 819.622 332.3V331.2C819.622 330.133 819.956 329.267 820.622 328.6C821.322 327.9 822.422 327.55 823.922 327.55C825.422 327.55 826.506 327.9 827.172 328.6C827.872 329.267 828.222 330.133 828.222 331.2V332.3C828.222 333.367 827.872 334.25 827.172 334.95C826.506 335.617 825.422 335.95 823.922 335.95ZM820.222 338.75H827.622V365H820.222V338.75ZM850.629 360.6H850.379C850.179 361.3 849.862 361.967 849.429 362.6C848.996 363.2 848.462 363.733 847.829 364.2C847.229 364.633 846.529 364.967 845.729 365.2C844.962 365.467 844.162 365.6 843.329 365.6C839.996 365.6 837.479 364.433 835.779 362.1C834.079 359.733 833.229 356.317 833.229 351.85C833.229 347.383 834.079 343.983 835.779 341.65C837.479 339.317 839.996 338.15 843.329 338.15C845.029 338.15 846.529 338.617 847.829 339.55C849.162 340.483 850.012 341.683 850.379 343.15H850.629V328H858.029V365H850.629V360.6ZM845.779 359.6C847.179 359.6 848.329 359.267 849.229 358.6C850.162 357.9 850.629 356.95 850.629 355.75V348C850.629 346.8 850.162 345.867 849.229 345.2C848.329 344.5 847.179 344.15 845.779 344.15C844.379 344.15 843.212 344.65 842.279 345.65C841.379 346.617 840.929 347.933 840.929 349.6V354.15C840.929 355.817 841.379 357.15 842.279 358.15C843.212 359.117 844.379 359.6 845.779 359.6ZM875.899 365.6C873.899 365.6 872.116 365.283 870.549 364.65C868.982 363.983 867.649 363.067 866.549 361.9C865.482 360.7 864.666 359.25 864.099 357.55C863.566 355.85 863.299 353.95 863.299 351.85C863.299 349.783 863.566 347.917 864.099 346.25C864.632 344.55 865.416 343.1 866.449 341.9C867.516 340.7 868.816 339.783 870.349 339.15C871.882 338.483 873.632 338.15 875.599 338.15C877.766 338.15 879.616 338.517 881.149 339.25C882.716 339.983 883.982 340.967 884.949 342.2C885.949 343.433 886.666 344.867 887.099 346.5C887.566 348.1 887.799 349.783 887.799 351.55V353.75H870.949V354.15C870.949 355.883 871.416 357.267 872.349 358.3C873.282 359.3 874.749 359.8 876.749 359.8C878.282 359.8 879.532 359.5 880.499 358.9C881.466 358.267 882.366 357.517 883.199 356.65L886.899 361.25C885.732 362.617 884.199 363.683 882.299 364.45C880.432 365.217 878.299 365.6 875.899 365.6ZM875.749 343.6C874.249 343.6 873.066 344.1 872.199 345.1C871.366 346.067 870.949 347.367 870.949 349V349.4H880.149V348.95C880.149 347.35 879.782 346.067 879.049 345.1C878.349 344.1 877.249 343.6 875.749 343.6ZM901.925 365.6C899.392 365.6 897.259 365.2 895.525 364.4C893.792 363.567 892.242 362.4 890.875 360.9L895.225 356.5C896.159 357.533 897.192 358.35 898.325 358.95C899.459 359.55 900.742 359.85 902.175 359.85C903.642 359.85 904.659 359.633 905.225 359.2C905.792 358.733 906.075 358.117 906.075 357.35C906.075 356.117 905.192 355.383 903.425 355.15L900.575 354.8C894.675 354.067 891.725 351.367 891.725 346.7C891.725 345.433 891.959 344.283 892.425 343.25C892.925 342.183 893.609 341.283 894.475 340.55C895.375 339.783 896.442 339.2 897.675 338.8C898.942 338.367 900.359 338.15 901.925 338.15C903.292 338.15 904.492 338.25 905.525 338.45C906.592 338.617 907.525 338.883 908.325 339.25C909.159 339.583 909.909 340.017 910.575 340.55C911.275 341.05 911.959 341.617 912.625 342.25L908.375 346.6C907.542 345.767 906.592 345.117 905.525 344.65C904.492 344.15 903.425 343.9 902.325 343.9C901.059 343.9 900.159 344.1 899.625 344.5C899.092 344.9 898.825 345.433 898.825 346.1C898.825 346.8 899.009 347.35 899.375 347.75C899.775 348.117 900.509 348.383 901.575 348.55L904.525 348.95C910.292 349.717 913.175 352.35 913.175 356.85C913.175 358.117 912.909 359.283 912.375 360.35C911.842 361.417 911.075 362.35 910.075 363.15C909.109 363.917 907.925 364.517 906.525 364.95C905.159 365.383 903.625 365.6 901.925 365.6Z" fill="#9AD4D6"/>
</svg>
